<?xml version="1.0"?>
<svg width="640" height="480" xmlns="http://www.w3.org/2000/svg" xmlns:svg="http://www.w3.org/2000/svg" xmlns:xlink="http://www.w3.org/1999/xlink">
 <!-- Created with SVG-edit - https://github.com/SVG-Edit/svgedit-->
 <defs>
  <symbol height="256px" id="svg_2" viewBox="0 0 256 256" width="256px" xmlns="http://www.w3.org/2000/svg" xmlns:xlink="http://www.w3.org/1999/xlink">
   <path d="m164.525,222.138l89.6,-89.6c2.5,-2.5 2.5,-6.551 0,-9.051l-89.6,-89.6c-2.5,-2.5 -6.551,-2.5 -9.051,0s-2.5,6.743 0,9.243l78.676,78.87l-227.75,0c-3.535,0 -6.4,2.466 -6.4,6s2.865,6 6.4,6l227.75,0l-78.676,78.881c-1.25,1.25 -1.875,2.992 -1.875,4.629s0.625,3.326 1.875,4.576c2.501,2.5 6.551,2.552 9.051,0.052z"/>
  </symbol>
 </defs>
 <g class="layer">
  <title>Layer 1</title>
  <use fill="#ffffff" id="svg_3" transform="matrix(0.625 0 0 0.625 0 0)" x="0" xlink:href="#svg_2" y="0"/>
  <g id="svg_4"/>
 </g>
</svg>